<svg width="90" height="34" viewBox="0 0 90 34" fill="none" xmlns="http://www.w3.org/2000/svg">
<rect width="90" height="34" fill="#FF7B1C"/>
<path d="M12.6836 22.7832H19.3438V25H9.92969V10.7812H12.6836V22.7832ZM31.8777 18.9355C31.8777 19.5475 31.8224 20.1302 31.7117 20.6836C31.601 21.2305 31.4415 21.7383 31.2332 22.207C31.0118 22.6758 30.7384 23.1055 30.4129 23.4961C30.0874 23.8867 29.7163 24.2122 29.2996 24.4727C28.922 24.7005 28.5053 24.8763 28.0496 25C27.6004 25.1302 27.1154 25.1953 26.5945 25.1953C26.0411 25.1953 25.5301 25.1237 25.0613 24.9805C24.5926 24.8372 24.1661 24.6354 23.782 24.375C23.4044 24.1016 23.0659 23.7728 22.7664 23.3887C22.4669 22.998 22.2163 22.5586 22.0145 22.0703C21.8322 21.6211 21.6922 21.1328 21.5945 20.6055C21.5034 20.0781 21.4578 19.5215 21.4578 18.9355V16.8652C21.4578 16.2402 21.5099 15.6478 21.6141 15.0879C21.7247 14.528 21.8842 14.0104 22.0926 13.5352C22.2944 13.0859 22.5385 12.679 22.825 12.3145C23.118 11.9499 23.4533 11.6374 23.8309 11.377C24.202 11.123 24.6186 10.9277 25.0809 10.791C25.5431 10.6543 26.0444 10.5859 26.5848 10.5859C27.1316 10.5859 27.6427 10.6576 28.118 10.8008C28.5997 10.9375 29.0327 11.1361 29.4168 11.3965C29.8009 11.6439 30.1362 11.9434 30.4227 12.2949C30.7156 12.6465 30.9663 13.0339 31.1746 13.457C31.4025 13.9388 31.575 14.4661 31.6922 15.0391C31.8159 15.612 31.8777 16.2207 31.8777 16.8652V18.9355ZM29.0945 16.8457C29.0945 16.4811 29.075 16.1361 29.0359 15.8105C29.0034 15.4785 28.948 15.1725 28.8699 14.8926C28.7723 14.541 28.6421 14.2285 28.4793 13.9551C28.3165 13.6751 28.1245 13.4473 27.9031 13.2715C27.7273 13.1413 27.5288 13.0404 27.3074 12.9688C27.0926 12.8971 26.8517 12.8613 26.5848 12.8613C26.3309 12.8613 26.0997 12.8939 25.8914 12.959C25.6896 13.0241 25.5073 13.1185 25.3445 13.2422C25.1232 13.4245 24.9344 13.6523 24.7781 13.9258C24.6284 14.1992 24.5112 14.5182 24.4266 14.8828C24.3615 15.1628 24.3126 15.4688 24.2801 15.8008C24.254 16.1328 24.241 16.4811 24.241 16.8457V18.9355C24.241 19.2806 24.254 19.6126 24.2801 19.9316C24.3061 20.2507 24.3517 20.5469 24.4168 20.8203C24.4884 21.1654 24.5926 21.4811 24.7293 21.7676C24.8725 22.0475 25.0385 22.2754 25.2273 22.4512C25.4031 22.6074 25.6017 22.7279 25.823 22.8125C26.0509 22.8971 26.3081 22.9395 26.5945 22.9395C26.868 22.9395 27.1186 22.9004 27.3465 22.8223C27.5743 22.7441 27.7762 22.6302 27.952 22.4805C28.1733 22.2982 28.3589 22.0703 28.5086 21.7969C28.6648 21.5169 28.7885 21.2012 28.8797 20.8496C28.9513 20.5762 29.0034 20.2767 29.0359 19.9512C29.075 19.6257 29.0945 19.2871 29.0945 18.9355V16.8457ZM43.943 23.3398C43.7672 23.5547 43.5263 23.7728 43.2203 23.9941C42.9143 24.2155 42.553 24.4141 42.1363 24.5898C41.7132 24.7721 41.2411 24.9186 40.7203 25.0293C40.1995 25.14 39.6396 25.1953 39.0406 25.1953C38.5198 25.1953 38.0283 25.1335 37.566 25.0098C37.1103 24.8926 36.6904 24.7201 36.3062 24.4922C35.9286 24.2578 35.5836 23.9714 35.2711 23.6328C34.9651 23.2943 34.7047 22.9069 34.4898 22.4707C34.2424 21.9889 34.0536 21.4453 33.9234 20.8398C33.7997 20.2344 33.7379 19.5768 33.7379 18.8672V16.9336C33.7379 16.2565 33.7997 15.6283 33.9234 15.0488C34.0471 14.4629 34.2229 13.9323 34.4508 13.457C34.6656 13.0339 34.913 12.653 35.193 12.3145C35.4794 11.9759 35.7919 11.6829 36.1305 11.4355C36.5276 11.1556 36.9605 10.944 37.4293 10.8008C37.898 10.6576 38.3928 10.5859 38.9137 10.5859C39.7145 10.5859 40.4111 10.6868 41.0035 10.8887C41.6025 11.0905 42.107 11.3802 42.5172 11.7578C42.9273 12.1419 43.2464 12.6074 43.4742 13.1543C43.7086 13.7012 43.8616 14.3164 43.9332 15H41.2574C41.2118 14.6549 41.1402 14.349 41.0426 14.082C40.9514 13.8151 40.8245 13.5905 40.6617 13.4082C40.4794 13.2064 40.2483 13.0566 39.9684 12.959C39.6949 12.8548 39.3661 12.8027 38.982 12.8027C38.7737 12.8027 38.5719 12.8353 38.3766 12.9004C38.1812 12.9655 37.999 13.0599 37.8297 13.1836C37.6083 13.3529 37.4065 13.5742 37.2242 13.8477C37.0484 14.1211 36.902 14.4434 36.7848 14.8145C36.6936 15.1009 36.622 15.4199 36.5699 15.7715C36.5243 16.123 36.5016 16.5039 36.5016 16.9141V18.8672C36.5016 19.3815 36.5341 19.8503 36.5992 20.2734C36.6708 20.6966 36.7685 21.071 36.8922 21.3965C36.9703 21.5853 37.0582 21.7611 37.1559 21.9238C37.26 22.0801 37.374 22.2201 37.4977 22.3438C37.706 22.5521 37.9469 22.7116 38.2203 22.8223C38.5003 22.9264 38.816 22.9818 39.1676 22.9883C39.3824 22.9883 39.594 22.972 39.8023 22.9395C40.0107 22.9069 40.206 22.8613 40.3883 22.8027C40.5706 22.7441 40.7301 22.679 40.8668 22.6074C41.01 22.5293 41.1174 22.4479 41.1891 22.3633L41.1988 19.7852H38.8453V17.7344H43.9332L43.943 23.3398ZM59.1965 10.7812H67.4191V12.998H64.6457V22.793H67.4191V25H59.1965V22.793H61.9016V12.998H59.1965V10.7812ZM80.1777 25H77.4434L73.4883 15.8301V25H70.7246V10.7812H73.4883L77.4141 19.9121L77.4238 10.7812H80.1777V25Z" fill="white"/>
</svg>
