<svg width="102" height="34" viewBox="0 0 102 34" fill="none" xmlns="http://www.w3.org/2000/svg">
<rect width="102" height="34" fill="white"/>
<path d="M17.0211 21.2891C17.0211 21.0352 16.9755 20.7975 16.8844 20.5762C16.7997 20.3548 16.6533 20.1465 16.4449 19.9512C16.2301 19.7624 15.9501 19.5898 15.6051 19.4336C15.2665 19.2708 14.8434 19.1211 14.3355 18.9844C13.5478 18.7695 12.8544 18.5091 12.2555 18.2031C11.663 17.8971 11.178 17.5618 10.8004 17.1973C10.4228 16.8327 10.1363 16.429 9.94102 15.9863C9.75222 15.5436 9.65781 15.0618 9.65781 14.541C9.65781 13.9421 9.78477 13.3984 10.0387 12.9102C10.2926 12.4219 10.6441 12.0052 11.0934 11.6602C11.5426 11.3151 12.0732 11.0514 12.6852 10.8691C13.2971 10.6803 13.9612 10.5859 14.6773 10.5859C15.4195 10.5859 16.0966 10.6934 16.7086 10.9082C17.3271 11.123 17.8577 11.4225 18.3004 11.8066C18.7431 12.1973 19.0882 12.6595 19.3355 13.1934C19.5829 13.7272 19.7066 14.3132 19.7066 14.9512H17.0309C17.0178 14.6322 16.9592 14.3392 16.8551 14.0723C16.7574 13.8053 16.6109 13.5742 16.4156 13.3789C16.2138 13.1901 15.9632 13.0436 15.6637 12.9395C15.3707 12.8288 15.0257 12.7734 14.6285 12.7734C14.2639 12.7734 13.9384 12.819 13.652 12.9102C13.372 12.9948 13.1344 13.1152 12.9391 13.2715C12.7438 13.4342 12.594 13.6263 12.4898 13.8477C12.3922 14.0625 12.3434 14.2969 12.3434 14.5508C12.3434 14.8177 12.4085 15.0586 12.5387 15.2734C12.6754 15.4883 12.8707 15.6803 13.1246 15.8496C13.3785 16.0254 13.6845 16.1849 14.0426 16.3281C14.4072 16.4714 14.8173 16.6048 15.273 16.7285C15.7613 16.8652 16.2268 17.0312 16.6695 17.2266C17.1122 17.4219 17.5191 17.6465 17.8902 17.9004C18.4501 18.3171 18.8961 18.8021 19.2281 19.3555C19.5602 19.9089 19.7262 20.5469 19.7262 21.2695C19.7262 21.8945 19.5992 22.4512 19.3453 22.9395C19.0979 23.4212 18.7529 23.8281 18.3102 24.1602C17.8674 24.4987 17.3401 24.7559 16.7281 24.9316C16.1161 25.1009 15.4488 25.1855 14.7262 25.1855C14.0165 25.1855 13.3134 25.0814 12.6168 24.873C11.9267 24.6582 11.3245 24.3457 10.8102 23.9355C10.3219 23.5319 9.93451 23.0566 9.64805 22.5098C9.3681 21.9629 9.22813 21.3216 9.22813 20.5859H11.9234C11.9365 21.0156 12.0113 21.3835 12.148 21.6895C12.2848 21.9954 12.4768 22.2461 12.7242 22.4414C12.9651 22.6367 13.2548 22.7799 13.5934 22.8711C13.9384 22.9622 14.316 23.0078 14.7262 23.0078C15.0908 23.0078 15.413 22.9655 15.693 22.8809C15.9794 22.7962 16.2203 22.679 16.4156 22.5293C16.6109 22.3796 16.7607 22.2005 16.8648 21.9922C16.969 21.7773 17.0211 21.543 17.0211 21.2891ZM22.4555 10.7812H30.6781V12.998H27.9047V22.793H30.6781V25H22.4555V22.793H25.1605V12.998H22.4555V10.7812ZM43.8371 23.3398C43.6613 23.5547 43.4204 23.7728 43.1145 23.9941C42.8085 24.2155 42.4471 24.4141 42.0305 24.5898C41.6073 24.7721 41.1353 24.9186 40.6145 25.0293C40.0936 25.14 39.5337 25.1953 38.9348 25.1953C38.4139 25.1953 37.9224 25.1335 37.4602 25.0098C37.0044 24.8926 36.5845 24.7201 36.2004 24.4922C35.8228 24.2578 35.4777 23.9714 35.1652 23.6328C34.8592 23.2943 34.5988 22.9069 34.384 22.4707C34.1366 21.9889 33.9478 21.4453 33.8176 20.8398C33.6939 20.2344 33.632 19.5768 33.632 18.8672V16.9336C33.632 16.2565 33.6939 15.6283 33.8176 15.0488C33.9413 14.4629 34.1171 13.9323 34.3449 13.457C34.5598 13.0339 34.8072 12.653 35.0871 12.3145C35.3736 11.9759 35.6861 11.6829 36.0246 11.4355C36.4217 11.1556 36.8547 10.944 37.3234 10.8008C37.7922 10.6576 38.287 10.5859 38.8078 10.5859C39.6086 10.5859 40.3052 10.6868 40.8977 10.8887C41.4966 11.0905 42.0012 11.3802 42.4113 11.7578C42.8215 12.1419 43.1405 12.6074 43.3684 13.1543C43.6027 13.7012 43.7557 14.3164 43.8273 15H41.1516C41.106 14.6549 41.0344 14.349 40.9367 14.082C40.8456 13.8151 40.7186 13.5905 40.5559 13.4082C40.3736 13.2064 40.1424 13.0566 39.8625 12.959C39.5891 12.8548 39.2603 12.8027 38.8762 12.8027C38.6678 12.8027 38.466 12.8353 38.2707 12.9004C38.0754 12.9655 37.8931 13.0599 37.7238 13.1836C37.5025 13.3529 37.3007 13.5742 37.1184 13.8477C36.9426 14.1211 36.7961 14.4434 36.6789 14.8145C36.5878 15.1009 36.5161 15.4199 36.4641 15.7715C36.4185 16.123 36.3957 16.5039 36.3957 16.9141V18.8672C36.3957 19.3815 36.4283 19.8503 36.4934 20.2734C36.565 20.6966 36.6626 21.071 36.7863 21.3965C36.8645 21.5853 36.9523 21.7611 37.05 21.9238C37.1542 22.0801 37.2681 22.2201 37.3918 22.3438C37.6001 22.5521 37.841 22.7116 38.1145 22.8223C38.3944 22.9264 38.7102 22.9818 39.0617 22.9883C39.2766 22.9883 39.4882 22.972 39.6965 22.9395C39.9048 22.9069 40.1001 22.8613 40.2824 22.8027C40.4647 22.7441 40.6242 22.679 40.7609 22.6074C40.9042 22.5293 41.0116 22.4479 41.0832 22.3633L41.093 19.7852H38.7395V17.7344H43.8273L43.8371 23.3398ZM55.6484 25H52.9141L48.959 15.8301V25H46.1953V10.7812H48.959L52.8848 19.9121L52.8945 10.7812H55.6484V25ZM71.3023 10.7812H79.525V12.998H76.7516V22.793H79.525V25H71.3023V22.793H74.0074V12.998H71.3023V10.7812ZM92.2836 25H89.5492L85.5941 15.8301V25H82.8305V10.7812H85.5941L89.5199 19.9121L89.5297 10.7812H92.2836V25Z" fill="#FF7B1C"/>
</svg>
