<svg width="212" height="34" viewBox="0 0 212 34" fill="none" xmlns="http://www.w3.org/2000/svg">
<rect width="90" height="34" fill="#FF7B1C"/>
<rect width="102" height="34" transform="translate(110)" fill="white"/>
<path d="M127.021 21.2891C127.021 21.0352 126.976 20.7975 126.884 20.5762C126.8 20.3548 126.653 20.1465 126.445 19.9512C126.23 19.7624 125.95 19.5898 125.605 19.4336C125.267 19.2708 124.843 19.1211 124.336 18.9844C123.548 18.7695 122.854 18.5091 122.255 18.2031C121.663 17.8971 121.178 17.5618 120.8 17.1973C120.423 16.8327 120.136 16.429 119.941 15.9863C119.752 15.5436 119.658 15.0618 119.658 14.541C119.658 13.9421 119.785 13.3984 120.039 12.9102C120.293 12.4219 120.644 12.0052 121.093 11.6602C121.543 11.3151 122.073 11.0514 122.685 10.8691C123.297 10.6803 123.961 10.5859 124.677 10.5859C125.42 10.5859 126.097 10.6934 126.709 10.9082C127.327 11.123 127.858 11.4225 128.3 11.8066C128.743 12.1973 129.088 12.6595 129.336 13.1934C129.583 13.7272 129.707 14.3132 129.707 14.9512H127.031C127.018 14.6322 126.959 14.3392 126.855 14.0723C126.757 13.8053 126.611 13.5742 126.416 13.3789C126.214 13.1901 125.963 13.0436 125.664 12.9395C125.371 12.8288 125.026 12.7734 124.629 12.7734C124.264 12.7734 123.938 12.819 123.652 12.9102C123.372 12.9948 123.134 13.1152 122.939 13.2715C122.744 13.4342 122.594 13.6263 122.49 13.8477C122.392 14.0625 122.343 14.2969 122.343 14.5508C122.343 14.8177 122.408 15.0586 122.539 15.2734C122.675 15.4883 122.871 15.6803 123.125 15.8496C123.379 16.0254 123.685 16.1849 124.043 16.3281C124.407 16.4714 124.817 16.6048 125.273 16.7285C125.761 16.8652 126.227 17.0312 126.67 17.2266C127.112 17.4219 127.519 17.6465 127.89 17.9004C128.45 18.3171 128.896 18.8021 129.228 19.3555C129.56 19.9089 129.726 20.5469 129.726 21.2695C129.726 21.8945 129.599 22.4512 129.345 22.9395C129.098 23.4212 128.753 23.8281 128.31 24.1602C127.867 24.4987 127.34 24.7559 126.728 24.9316C126.116 25.1009 125.449 25.1855 124.726 25.1855C124.017 25.1855 123.313 25.0814 122.617 24.873C121.927 24.6582 121.324 24.3457 120.81 23.9355C120.322 23.5319 119.935 23.0566 119.648 22.5098C119.368 21.9629 119.228 21.3216 119.228 20.5859H121.923C121.936 21.0156 122.011 21.3835 122.148 21.6895C122.285 21.9954 122.477 22.2461 122.724 22.4414C122.965 22.6367 123.255 22.7799 123.593 22.8711C123.938 22.9622 124.316 23.0078 124.726 23.0078C125.091 23.0078 125.413 22.9655 125.693 22.8809C125.979 22.7962 126.22 22.679 126.416 22.5293C126.611 22.3796 126.761 22.2005 126.865 21.9922C126.969 21.7773 127.021 21.543 127.021 21.2891ZM132.455 10.7812H140.678V12.998H137.905V22.793H140.678V25H132.455V22.793H135.161V12.998H132.455V10.7812ZM153.837 23.3398C153.661 23.5547 153.42 23.7728 153.114 23.9941C152.808 24.2155 152.447 24.4141 152.03 24.5898C151.607 24.7721 151.135 24.9186 150.614 25.0293C150.094 25.14 149.534 25.1953 148.935 25.1953C148.414 25.1953 147.922 25.1335 147.46 25.0098C147.004 24.8926 146.585 24.7201 146.2 24.4922C145.823 24.2578 145.478 23.9714 145.165 23.6328C144.859 23.2943 144.599 22.9069 144.384 22.4707C144.137 21.9889 143.948 21.4453 143.818 20.8398C143.694 20.2344 143.632 19.5768 143.632 18.8672V16.9336C143.632 16.2565 143.694 15.6283 143.818 15.0488C143.941 14.4629 144.117 13.9323 144.345 13.457C144.56 13.0339 144.807 12.653 145.087 12.3145C145.374 11.9759 145.686 11.6829 146.025 11.4355C146.422 11.1556 146.855 10.944 147.323 10.8008C147.792 10.6576 148.287 10.5859 148.808 10.5859C149.609 10.5859 150.305 10.6868 150.898 10.8887C151.497 11.0905 152.001 11.3802 152.411 11.7578C152.821 12.1419 153.14 12.6074 153.368 13.1543C153.603 13.7012 153.756 14.3164 153.827 15H151.152C151.106 14.6549 151.034 14.349 150.937 14.082C150.846 13.8151 150.719 13.5905 150.556 13.4082C150.374 13.2064 150.142 13.0566 149.863 12.959C149.589 12.8548 149.26 12.8027 148.876 12.8027C148.668 12.8027 148.466 12.8353 148.271 12.9004C148.075 12.9655 147.893 13.0599 147.724 13.1836C147.502 13.3529 147.301 13.5742 147.118 13.8477C146.943 14.1211 146.796 14.4434 146.679 14.8145C146.588 15.1009 146.516 15.4199 146.464 15.7715C146.418 16.123 146.396 16.5039 146.396 16.9141V18.8672C146.396 19.3815 146.428 19.8503 146.493 20.2734C146.565 20.6966 146.663 21.071 146.786 21.3965C146.864 21.5853 146.952 21.7611 147.05 21.9238C147.154 22.0801 147.268 22.2201 147.392 22.3438C147.6 22.5521 147.841 22.7116 148.114 22.8223C148.394 22.9264 148.71 22.9818 149.062 22.9883C149.277 22.9883 149.488 22.972 149.696 22.9395C149.905 22.9069 150.1 22.8613 150.282 22.8027C150.465 22.7441 150.624 22.679 150.761 22.6074C150.904 22.5293 151.012 22.4479 151.083 22.3633L151.093 19.7852H148.739V17.7344H153.827L153.837 23.3398ZM165.648 25H162.914L158.959 15.8301V25H156.195V10.7812H158.959L162.885 19.9121L162.895 10.7812H165.648V25ZM181.302 10.7812H189.525V12.998H186.752V22.793H189.525V25H181.302V22.793H184.007V12.998H181.302V10.7812ZM202.284 25H199.549L195.594 15.8301V25H192.83V10.7812H195.594L199.52 19.9121L199.53 10.7812H202.284V25Z" fill="#FF7B1C"/>
<path d="M12.6836 22.7832H19.3438V25H9.92969V10.7812H12.6836V22.7832ZM31.8777 18.9355C31.8777 19.5475 31.8224 20.1302 31.7117 20.6836C31.601 21.2305 31.4415 21.7383 31.2332 22.207C31.0118 22.6758 30.7384 23.1055 30.4129 23.4961C30.0874 23.8867 29.7163 24.2122 29.2996 24.4727C28.922 24.7005 28.5053 24.8763 28.0496 25C27.6004 25.1302 27.1154 25.1953 26.5945 25.1953C26.0411 25.1953 25.5301 25.1237 25.0613 24.9805C24.5926 24.8372 24.1661 24.6354 23.782 24.375C23.4044 24.1016 23.0659 23.7728 22.7664 23.3887C22.4669 22.998 22.2163 22.5586 22.0145 22.0703C21.8322 21.6211 21.6922 21.1328 21.5945 20.6055C21.5034 20.0781 21.4578 19.5215 21.4578 18.9355V16.8652C21.4578 16.2402 21.5099 15.6478 21.6141 15.0879C21.7247 14.528 21.8842 14.0104 22.0926 13.5352C22.2944 13.0859 22.5385 12.679 22.825 12.3145C23.118 11.9499 23.4533 11.6374 23.8309 11.377C24.202 11.123 24.6186 10.9277 25.0809 10.791C25.5431 10.6543 26.0444 10.5859 26.5848 10.5859C27.1316 10.5859 27.6427 10.6576 28.118 10.8008C28.5997 10.9375 29.0327 11.1361 29.4168 11.3965C29.8009 11.6439 30.1362 11.9434 30.4227 12.2949C30.7156 12.6465 30.9663 13.0339 31.1746 13.457C31.4025 13.9388 31.575 14.4661 31.6922 15.0391C31.8159 15.612 31.8777 16.2207 31.8777 16.8652V18.9355ZM29.0945 16.8457C29.0945 16.4811 29.075 16.1361 29.0359 15.8105C29.0034 15.4785 28.948 15.1725 28.8699 14.8926C28.7723 14.541 28.6421 14.2285 28.4793 13.9551C28.3165 13.6751 28.1245 13.4473 27.9031 13.2715C27.7273 13.1413 27.5288 13.0404 27.3074 12.9688C27.0926 12.8971 26.8517 12.8613 26.5848 12.8613C26.3309 12.8613 26.0997 12.8939 25.8914 12.959C25.6896 13.0241 25.5073 13.1185 25.3445 13.2422C25.1232 13.4245 24.9344 13.6523 24.7781 13.9258C24.6284 14.1992 24.5112 14.5182 24.4266 14.8828C24.3615 15.1628 24.3126 15.4688 24.2801 15.8008C24.254 16.1328 24.241 16.4811 24.241 16.8457V18.9355C24.241 19.2806 24.254 19.6126 24.2801 19.9316C24.3061 20.2507 24.3517 20.5469 24.4168 20.8203C24.4884 21.1654 24.5926 21.4811 24.7293 21.7676C24.8725 22.0475 25.0385 22.2754 25.2273 22.4512C25.4031 22.6074 25.6017 22.7279 25.823 22.8125C26.0509 22.8971 26.3081 22.9395 26.5945 22.9395C26.868 22.9395 27.1186 22.9004 27.3465 22.8223C27.5743 22.7441 27.7762 22.6302 27.952 22.4805C28.1733 22.2982 28.3589 22.0703 28.5086 21.7969C28.6648 21.5169 28.7885 21.2012 28.8797 20.8496C28.9513 20.5762 29.0034 20.2767 29.0359 19.9512C29.075 19.6257 29.0945 19.2871 29.0945 18.9355V16.8457ZM43.943 23.3398C43.7672 23.5547 43.5263 23.7728 43.2203 23.9941C42.9143 24.2155 42.553 24.4141 42.1363 24.5898C41.7132 24.7721 41.2411 24.9186 40.7203 25.0293C40.1995 25.14 39.6396 25.1953 39.0406 25.1953C38.5198 25.1953 38.0283 25.1335 37.566 25.0098C37.1103 24.8926 36.6904 24.7201 36.3062 24.4922C35.9286 24.2578 35.5836 23.9714 35.2711 23.6328C34.9651 23.2943 34.7047 22.9069 34.4898 22.4707C34.2424 21.9889 34.0536 21.4453 33.9234 20.8398C33.7997 20.2344 33.7379 19.5768 33.7379 18.8672V16.9336C33.7379 16.2565 33.7997 15.6283 33.9234 15.0488C34.0471 14.4629 34.2229 13.9323 34.4508 13.457C34.6656 13.0339 34.913 12.653 35.193 12.3145C35.4794 11.9759 35.7919 11.6829 36.1305 11.4355C36.5276 11.1556 36.9605 10.944 37.4293 10.8008C37.898 10.6576 38.3928 10.5859 38.9137 10.5859C39.7145 10.5859 40.4111 10.6868 41.0035 10.8887C41.6025 11.0905 42.107 11.3802 42.5172 11.7578C42.9273 12.1419 43.2464 12.6074 43.4742 13.1543C43.7086 13.7012 43.8616 14.3164 43.9332 15H41.2574C41.2118 14.6549 41.1402 14.349 41.0426 14.082C40.9514 13.8151 40.8245 13.5905 40.6617 13.4082C40.4794 13.2064 40.2483 13.0566 39.9684 12.959C39.6949 12.8548 39.3661 12.8027 38.982 12.8027C38.7737 12.8027 38.5719 12.8353 38.3766 12.9004C38.1812 12.9655 37.999 13.0599 37.8297 13.1836C37.6083 13.3529 37.4065 13.5742 37.2242 13.8477C37.0484 14.1211 36.902 14.4434 36.7848 14.8145C36.6936 15.1009 36.622 15.4199 36.5699 15.7715C36.5243 16.123 36.5016 16.5039 36.5016 16.9141V18.8672C36.5016 19.3815 36.5341 19.8503 36.5992 20.2734C36.6708 20.6966 36.7685 21.071 36.8922 21.3965C36.9703 21.5853 37.0582 21.7611 37.1559 21.9238C37.26 22.0801 37.374 22.2201 37.4977 22.3438C37.706 22.5521 37.9469 22.7116 38.2203 22.8223C38.5003 22.9264 38.816 22.9818 39.1676 22.9883C39.3824 22.9883 39.594 22.972 39.8023 22.9395C40.0107 22.9069 40.206 22.8613 40.3883 22.8027C40.5706 22.7441 40.7301 22.679 40.8668 22.6074C41.01 22.5293 41.1174 22.4479 41.1891 22.3633L41.1988 19.7852H38.8453V17.7344H43.9332L43.943 23.3398ZM59.1965 10.7812H67.4191V12.998H64.6457V22.793H67.4191V25H59.1965V22.793H61.9016V12.998H59.1965V10.7812ZM80.1777 25H77.4434L73.4883 15.8301V25H70.7246V10.7812H73.4883L77.4141 19.9121L77.4238 10.7812H80.1777V25Z" fill="white"/>
</svg>
