<svg width="28" height="24" viewBox="0 0 28 24" fill="none" xmlns="http://www.w3.org/2000/svg">
<path d="M0.937378 11.7669C0.937378 11.0433 1.51088 10.456 2.21752 10.456H23.2497L15.6385 2.45594C15.516 2.33381 15.4186 2.1878 15.3521 2.02651C15.2856 1.86522 15.2514 1.69193 15.2513 1.51685C15.2513 1.34178 15.2855 1.16847 15.3519 1.00716C15.4184 0.845842 15.5157 0.699788 15.6381 0.577614C15.7606 0.45544 15.9057 0.35962 16.0649 0.295809C16.2241 0.231997 16.3941 0.201487 16.565 0.206078C16.7359 0.21067 16.9042 0.25027 17.0599 0.322542C17.2156 0.394814 17.3556 0.498294 17.4716 0.626875L27.1976 10.8493C27.4332 11.0938 27.5652 11.4235 27.5652 11.7669C27.5652 12.1104 27.4332 12.4401 27.1976 12.6846L17.4716 22.907C17.3556 23.0356 17.2156 23.1391 17.0599 23.2113C16.9042 23.2836 16.7359 23.3232 16.565 23.3278C16.3941 23.3324 16.2241 23.3019 16.0649 23.2381C15.9057 23.1743 15.7606 23.0784 15.6381 22.9563C15.5157 22.8341 15.4184 22.688 15.3519 22.5267C15.2855 22.3654 15.2513 22.1921 15.2513 22.017C15.2514 21.842 15.2856 21.6687 15.3521 21.5074C15.4186 21.3461 15.516 21.2001 15.6385 21.0779L23.2497 13.0779H2.21752C1.51088 13.0779 0.937378 12.4906 0.937378 11.7669Z" fill="black"/>
</svg>
