<svg width="25" height="25" viewBox="0 0 25 25" fill="none" xmlns="http://www.w3.org/2000/svg">
<path d="M25 12.5C25 5.5957 19.4043 0 12.5 0C5.5957 0 0 5.5957 0 12.5C0 18.7402 4.57031 23.9111 10.5468 24.8486V16.1133H7.37304V12.5H10.5468V9.74609C10.5468 6.61377 12.4122 4.88282 15.2685 4.88282C16.6358 4.88282 18.0664 5.12695 18.0664 5.12695V8.20312H16.4892C14.9365 8.20312 14.4532 9.16748 14.4532 10.1562V12.5H17.9199L17.3657 16.1133H14.4532V24.8486C20.4297 23.9111 25 18.7402 25 12.5Z" fill="#1877F2"/>
<path d="M17.3657 16.1133L17.9199 12.5H14.4532V10.1562C14.4532 9.16747 14.9365 8.20312 16.4892 8.20312H18.0664V5.12695C18.0664 5.12695 16.6358 4.88281 15.2685 4.88281C12.4122 4.88281 10.5468 6.61377 10.5468 9.74609V12.5H7.37305V16.1133H10.5468V24.8486C11.1841 24.9487 11.8359 25 12.5 25C13.1641 25 13.8159 24.9487 14.4532 24.8486V16.1133H17.3657Z" fill="white"/>
</svg>
