<svg width="25" height="25" viewBox="0 0 25 25" fill="none" xmlns="http://www.w3.org/2000/svg">
<path d="M12.5 25C19.4036 25 25 19.4036 25 12.5C25 5.59644 19.4036 0 12.5 0C5.59644 0 0 5.59644 0 12.5C0 19.4036 5.59644 25 12.5 25Z" fill="#1DA1F2"/>
<path d="M18.9939 8.66211C18.5349 8.86475 18.0442 9.00146 17.5266 9.06494C18.054 8.74756 18.4592 8.24707 18.6497 7.65137C18.1565 7.93945 17.6072 8.14941 17.0261 8.2666C16.5598 7.76855 15.8982 7.45605 15.1609 7.45605C13.7498 7.45605 12.6047 8.60107 12.6047 10.0098C12.6047 10.2124 12.6292 10.4077 12.6707 10.5933C10.5466 10.4932 8.66187 9.47266 7.4021 7.92969C7.17993 8.30566 7.05542 8.74023 7.05542 9.21631C7.05542 10.105 7.50708 10.8862 8.19312 11.3452C7.77319 11.3306 7.38013 11.2158 7.03589 11.0254V11.0571C7.03589 12.2974 7.9148 13.3301 9.08667 13.5645C8.87183 13.623 8.64478 13.6523 8.41284 13.6523C8.24927 13.6523 8.09302 13.6377 7.93677 13.6084C8.26392 14.624 9.2063 15.3638 10.3293 15.3833C9.45776 16.0693 8.34937 16.4771 7.1604 16.4771C6.95776 16.4771 6.75513 16.4648 6.55249 16.4429C7.69019 17.168 9.03052 17.5903 10.4783 17.5903C15.178 17.5903 17.7488 13.6963 17.7488 10.3247C17.7488 10.2173 17.7488 10.1074 17.7415 9.99756C18.2395 9.63867 18.6765 9.18701 19.0183 8.67432L18.9939 8.66211Z" fill="white"/>
</svg>
