<svg width="25" height="25" viewBox="0 0 25 25" fill="none" xmlns="http://www.w3.org/2000/svg">
<path d="M25 12.5C25 5.59644 19.4036 0 12.5 0C5.59644 0 0 5.59644 0 12.5C0 19.4036 5.59644 25 12.5 25C19.4036 25 25 19.4036 25 12.5Z" fill="url(#paint0_linear_183_820)"/>
<path d="M10.4195 12.5318C10.4195 11.3802 11.3525 10.4465 12.5038 10.4465C13.655 10.4465 14.5885 11.3802 14.5885 12.5318C14.5885 13.6834 13.655 14.6171 12.5038 14.6171C11.3525 14.6171 10.4195 13.6834 10.4195 12.5318ZM9.29253 12.5318C9.29253 14.3059 10.7302 15.7439 12.5038 15.7439C14.2773 15.7439 15.715 14.3059 15.715 12.5318C15.715 10.7577 14.2773 9.31965 12.5038 9.31965C10.7302 9.31965 9.29253 10.7577 9.29253 12.5318ZM15.0917 9.19228C15.0916 9.34076 15.1356 9.48591 15.218 9.60938C15.3004 9.73287 15.4176 9.82912 15.5546 9.88599C15.6917 9.94287 15.8426 9.9578 15.9882 9.92889C16.1338 9.89997 16.2676 9.82854 16.3725 9.72359C16.4775 9.61866 16.5491 9.48492 16.5781 9.33934C16.6071 9.19373 16.5923 9.04279 16.5355 8.90559C16.4788 8.76841 16.3827 8.65114 16.2593 8.5686C16.1359 8.48606 15.9908 8.44197 15.8424 8.44191H15.8421C15.6432 8.44202 15.4524 8.5211 15.3117 8.66179C15.171 8.80246 15.0918 8.99329 15.0917 9.19228ZM9.97724 17.6237C9.36754 17.5959 9.03612 17.4943 8.81589 17.4085C8.52393 17.2948 8.3156 17.1594 8.09657 16.9406C7.87753 16.7218 7.74194 16.5136 7.6288 16.2215C7.54292 16.0013 7.44138 15.6697 7.41367 15.0598C7.38333 14.4005 7.37727 14.2024 7.37727 12.5319C7.37727 10.8613 7.38382 10.6638 7.41367 10.0039C7.44141 9.39398 7.54374 9.06302 7.6288 8.84216C7.74246 8.55012 7.87783 8.34174 8.09657 8.12265C8.3153 7.90353 8.52341 7.76792 8.81589 7.65471C9.03601 7.56884 9.36754 7.46724 9.97724 7.43953C10.6364 7.4092 10.8344 7.40313 12.5038 7.40313C14.1731 7.40313 14.3713 7.40971 15.031 7.43953C15.6407 7.4673 15.9716 7.56963 16.1924 7.65471C16.4843 7.76792 16.6927 7.90383 16.9117 8.12265C17.1307 8.34143 17.2658 8.55012 17.3795 8.84216C17.4653 9.06237 17.5669 9.39398 17.5946 10.0039C17.6249 10.6638 17.631 10.8613 17.631 12.5319C17.631 14.2024 17.6249 14.3999 17.5946 15.0598C17.5668 15.6697 17.4648 16.0012 17.3795 16.2215C17.2658 16.5136 17.1304 16.722 16.9117 16.9406C16.693 17.1592 16.4843 17.2948 16.1924 17.4085C15.9722 17.4944 15.6407 17.5959 15.031 17.6237C14.3718 17.654 14.1738 17.6601 12.5038 17.6601C10.8337 17.6601 10.6362 17.654 9.97724 17.6237ZM9.92547 6.31414C9.25972 6.34445 8.80478 6.45006 8.4075 6.60468C7.99606 6.76439 7.64774 6.97861 7.29967 7.32622C6.95163 7.67383 6.738 8.0228 6.57836 8.43435C6.42376 8.83201 6.31821 9.28681 6.28787 9.95275C6.25707 10.6198 6.25 10.833 6.25 12.5318C6.25 14.2306 6.25707 14.4438 6.28787 15.1109C6.31821 15.7768 6.42376 16.2316 6.57836 16.6293C6.738 17.0406 6.95168 17.3899 7.29967 17.7374C7.64769 18.0848 7.99606 18.2988 8.4075 18.4589C8.80554 18.6136 9.25972 18.7192 9.92547 18.7495C10.5926 18.7798 10.8054 18.7874 12.5038 18.7874C14.2021 18.7874 14.4152 18.7803 15.082 18.7495C15.7478 18.7192 16.2025 18.6136 16.6 18.4589C17.0112 18.2988 17.3598 18.085 17.7078 17.7374C18.0559 17.3898 18.2691 17.0406 18.4291 16.6293C18.5837 16.2316 18.6898 15.7768 18.7196 15.1109C18.7499 14.4434 18.757 14.2306 18.757 12.5318C18.757 10.833 18.7499 10.6198 18.7196 9.95275C18.6893 9.28678 18.5837 8.83176 18.4291 8.43435C18.2691 8.02304 18.0553 7.6744 17.7078 7.32622C17.3603 6.97807 17.0112 6.76439 16.6005 6.60468C16.2025 6.45006 15.7478 6.34396 15.0826 6.31414C14.4157 6.28381 14.2026 6.27625 12.5042 6.27625C10.8059 6.27625 10.5926 6.28329 9.92547 6.31414Z" fill="white"/>
<defs>
<linearGradient id="paint0_linear_183_820" x1="24.5195" y1="25" x2="-0.4805" y2="5.72801e-08" gradientUnits="userSpaceOnUse">
<stop stop-color="#FBE18A"/>
<stop offset="0.21" stop-color="#FCBB45"/>
<stop offset="0.38" stop-color="#F75274"/>
<stop offset="0.52" stop-color="#D53692"/>
<stop offset="0.74" stop-color="#8F39CE"/>
<stop offset="1" stop-color="#5B4FE9"/>
</linearGradient>
</defs>
</svg>
